<svg width="71" height="41" viewBox="0 0 71 41" fill="none" xmlns="http://www.w3.org/2000/svg">
<g clip-path="url(#clip0_1097_1210)">
<mask id="mask0_1097_1210" style="mask-type:luminance" maskUnits="userSpaceOnUse" x="0" y="0" width="71" height="41">
<path d="M70.5 0.875H0.5V40.5341H70.5V0.875Z" fill="white"/>
</mask>
<g mask="url(#mask0_1097_1210)">
<path d="M41.4506 19.9973C41.0844 19.9577 40.7455 19.7817 40.4992 19.5032C40.2529 19.2247 40.1167 18.8635 40.1167 18.489C40.1167 18.1145 40.2529 17.7532 40.4992 17.4748C40.7455 17.1963 41.0844 17.0203 41.4506 16.9807C41.8169 17.0203 42.1558 17.1963 42.402 17.4748C42.6483 17.7532 42.7846 18.1145 42.7846 18.489C42.7846 18.8635 42.6483 19.2247 42.402 19.5032C42.1558 19.7817 41.8169 19.9577 41.4506 19.9973ZM38.8189 26.0135C38.0495 26.0769 37.2814 25.8763 36.6373 25.4438C35.9931 25.0113 35.5101 24.3718 35.2653 23.6275H42.3055C42.0789 24.3697 41.6097 25.011 40.9756 25.4449C40.3415 25.8789 39.5805 26.0795 38.8189 26.0135ZM34.7121 18.4805C34.722 18.1937 34.8144 17.9162 34.978 17.6823C35.1415 17.4485 35.369 17.2686 35.6321 17.1649C35.8953 17.0613 36.1826 17.0385 36.4584 17.0993C36.7342 17.1601 36.9864 17.3019 37.1837 17.5071C37.3809 17.7123 37.5146 17.9719 37.5682 18.2536C37.6217 18.5353 37.5928 18.8269 37.4849 19.092C37.377 19.3572 37.1949 19.5843 36.9613 19.7452C36.7276 19.9061 36.4526 19.9938 36.1704 19.9973C35.9761 19.9973 35.7837 19.9579 35.6045 19.8813C35.4254 19.8046 35.2631 19.6923 35.1272 19.551C34.9913 19.4097 34.8846 19.2422 34.8133 19.0584C34.7421 18.8745 34.7076 18.678 34.7121 18.4805ZM43.4789 12.8051C42.3055 12.8051 41.1489 13.9981 38.8189 13.9981C36.4889 13.9981 35.2653 12.8051 34.0248 12.8051C33.7267 12.8389 33.4491 12.9759 33.2385 13.1931C33.0279 13.4103 32.8972 13.6946 32.8682 13.9981V22.3833C32.782 23.1926 32.8744 24.0113 33.1389 24.7796C33.4033 25.548 33.833 26.2467 34.3967 26.8247C34.9605 27.4028 35.644 27.8456 36.3974 28.121C37.1508 28.3964 37.9552 28.4974 38.7519 28.4165C43.4118 28.4165 44.5684 25.0932 44.5684 22.3833V13.9811C44.5395 13.6775 44.4088 13.3933 44.1982 13.1761C43.9876 12.9588 43.71 12.8219 43.4118 12.7881" fill="#9DA3AE"/>
<path d="M27.9567 10.9646C28.3405 10.9735 28.7054 11.136 28.9722 11.4168C29.2389 11.6976 29.386 12.074 29.3815 12.4643C29.3815 12.8531 29.2296 13.2259 28.9592 13.5008C28.6889 13.7756 28.3222 13.93 27.9399 13.93C27.5576 13.93 27.1909 13.7756 26.9206 13.5008C26.6502 13.2259 26.4983 12.8531 26.4983 12.4643C26.4961 12.2682 26.5322 12.0736 26.6045 11.8917C26.6768 11.7098 26.7839 11.5443 26.9195 11.4049C27.0551 11.2654 27.2167 11.1546 27.3947 11.079C27.5727 11.0035 27.7637 10.9645 27.9567 10.9646ZM30.6722 16.4183C31.0659 16.4068 31.4582 16.4704 31.8288 16.6058V13.9812C31.7931 13.5127 31.8835 13.0431 32.0902 12.6228C32.2969 12.2025 32.6121 11.8473 33.0022 11.5952C33.3405 11.3444 33.7484 11.2093 34.1672 11.2093C34.5859 11.2093 34.9938 11.3444 35.3321 11.5952L36.4888 12.2257V8.01611C36.471 7.70343 36.3452 7.40716 36.1336 7.17955C35.922 6.95193 35.6382 6.80759 35.3321 6.77197C34.1588 6.77197 33.0022 8.01611 30.6722 8.01611C28.3422 8.01611 27.1185 6.77197 25.9452 6.77197C25.6378 6.80427 25.3521 6.94759 25.1399 7.17588C24.9276 7.40418 24.803 7.70231 24.7886 8.01611V16.4183C24.7526 17.5259 24.9828 18.6257 25.4591 19.6224C25.6537 19.7228 25.8554 19.8082 26.0625 19.8781C27.3566 20.5479 28.5713 21.3656 29.6832 22.3152H30.6722C31.0573 22.3407 31.4437 22.3407 31.8288 22.3152V18.8044" fill="#9DA3AE"/>
<path d="M40.4113 36.921V37.6709C40.407 37.765 40.3845 37.8572 40.3451 37.9424C40.3057 38.0276 40.2501 38.104 40.1816 38.1673C40.1131 38.2307 40.033 38.2796 39.9458 38.3114C39.8587 38.3432 39.7662 38.3572 39.6737 38.3526H31.2925C31.1147 38.3526 30.9441 38.2808 30.8184 38.153C30.6927 38.0251 30.622 37.8517 30.622 37.6709V36.921H0.499893V38.3697C0.493075 38.6499 0.542053 38.9286 0.643882 39.1891C0.745711 39.4496 0.898289 39.6864 1.09244 39.8854C1.2866 40.0844 1.51832 40.2415 1.77369 40.3471C2.02906 40.4527 2.30279 40.5047 2.57844 40.5001H68.4213C68.697 40.5047 68.9707 40.4527 69.2261 40.3471C69.4815 40.2415 69.7132 40.0844 69.9073 39.8854C70.1015 39.6864 70.2541 39.4496 70.3559 39.1891C70.4577 38.9286 70.5067 38.6499 70.4999 38.3697V36.9381L40.4113 36.921Z" fill="#9DA3AE"/>
<path d="M59.2859 31.9104H11.6637V3.26105H59.2859V31.9104ZM60.0234 0.50008H10.9765C10.7025 0.488421 10.4291 0.533837 10.173 0.633538C9.91695 0.733239 9.68363 0.885119 9.48739 1.07985C9.29116 1.27458 9.13616 1.50805 9.0319 1.76591C8.92765 2.02377 8.87636 2.30058 8.88117 2.57933V32.6603C8.87894 32.9407 8.93161 33.2187 9.03612 33.4782C9.14062 33.7377 9.29488 33.9735 9.48989 34.1718C9.68491 34.37 9.91678 34.5269 10.172 34.6331C10.4272 34.7394 10.7007 34.7929 10.9765 34.7907H60.0234C60.2978 34.7907 60.5694 34.7355 60.8227 34.6282C61.076 34.5209 61.3059 34.3637 61.4991 34.1657C61.6924 33.9676 61.8451 33.7326 61.9486 33.4743C62.052 33.2159 62.1042 32.9392 62.102 32.6603V2.57933C62.1067 2.30207 62.0559 2.02673 61.9526 1.77005C61.8494 1.51337 61.6959 1.28072 61.5015 1.08624C61.3071 0.891756 61.0758 0.739503 60.8217 0.638737C60.5676 0.53797 60.296 0.490796 60.0234 0.50008Z" fill="#9DA3AE"/>
</g>
</g>
<defs>
<clipPath id="clip0_1097_1210">
<rect width="70" height="40" fill="white" transform="translate(0.5 0.5)"/>
</clipPath>
</defs>
</svg>
