<svg width="34" height="35" viewBox="0 0 34 35" fill="none" xmlns="http://www.w3.org/2000/svg">
<rect x="1" y="1.5" width="32" height="32" rx="16" stroke="#FA6369" stroke-width="2"/>
<rect x="5" y="5.5" width="24" height="24" rx="12" fill="#FA6369"/>
<path d="M13.0909 14.908C13.1443 13.8413 13.5176 13.02 14.2109 12.444C14.9149 11.8573 15.8376 11.564 16.9789 11.564C17.7576 11.564 18.4243 11.7027 18.9789 11.98C19.5336 12.2467 19.9496 12.6147 20.2269 13.084C20.5149 13.5427 20.6589 14.0653 20.6589 14.652C20.6589 15.324 20.4829 15.8947 20.1309 16.364C19.7896 16.8227 19.3789 17.132 18.8989 17.292V17.356C19.5176 17.548 19.9976 17.8893 20.3389 18.38C20.6909 18.8707 20.8669 19.5 20.8669 20.268C20.8669 20.908 20.7176 21.4787 20.4189 21.98C20.1309 22.4813 19.6989 22.876 19.1229 23.164C18.5576 23.4413 17.8749 23.58 17.0749 23.58C15.8696 23.58 14.8883 23.276 14.1309 22.668C13.3736 22.06 12.9736 21.164 12.9309 19.98H15.1069C15.1283 20.5027 15.3043 20.924 15.6349 21.244C15.9763 21.5533 16.4403 21.708 17.0269 21.708C17.5709 21.708 17.9869 21.5587 18.2749 21.26C18.5736 20.9507 18.7229 20.556 18.7229 20.076C18.7229 19.436 18.5203 18.9773 18.1149 18.7C17.7096 18.4227 17.0803 18.284 16.2269 18.284H15.7629V16.444H16.2269C17.7416 16.444 18.4989 15.9373 18.4989 14.924C18.4989 14.4653 18.3603 14.108 18.0829 13.852C17.8163 13.596 17.4269 13.468 16.9149 13.468C16.4136 13.468 16.0243 13.6067 15.7469 13.884C15.4803 14.1507 15.3256 14.492 15.2829 14.908H13.0909Z" fill="white"/>
</svg>
