<svg width="34" height="35" viewBox="0 0 34 35" fill="none" xmlns="http://www.w3.org/2000/svg">
<rect x="1" y="1.5" width="32" height="32" rx="16" stroke="#FA6369" stroke-width="2"/>
<rect x="5" y="5.5" width="24" height="24" rx="12" fill="#FA6369"/>
<path d="M13.9583 20.972C14.9823 20.1187 15.7983 19.4093 16.4062 18.844C17.0143 18.268 17.5209 17.6707 17.9263 17.052C18.3316 16.4333 18.5343 15.8253 18.5343 15.228C18.5343 14.684 18.4063 14.2573 18.1503 13.948C17.8943 13.6387 17.4996 13.484 16.9663 13.484C16.4329 13.484 16.0223 13.6653 15.7343 14.028C15.4463 14.38 15.2969 14.8653 15.2863 15.484H13.1103C13.1529 14.204 13.5316 13.2333 14.2463 12.572C14.9716 11.9107 15.8889 11.58 16.9983 11.58C18.2143 11.58 19.1476 11.9053 19.7983 12.556C20.4489 13.196 20.7743 14.044 20.7743 15.1C20.7743 15.932 20.5503 16.7267 20.1023 17.484C19.6543 18.2413 19.1423 18.9027 18.5663 19.468C17.9903 20.0227 17.2383 20.6947 16.3103 21.484H21.0303V23.34H13.1263V21.676L13.9583 20.972Z" fill="white"/>
</svg>
