<svg width="34" height="35" viewBox="0 0 34 35" fill="none" xmlns="http://www.w3.org/2000/svg">
<rect x="1" y="1.5" width="32" height="32" rx="16" stroke="#FA6369" stroke-width="2"/>
<rect x="5" y="5.5" width="24" height="24" rx="12" fill="#FA6369"/>
<path d="M20.5396 13.772H15.3556V16.508C15.5796 16.2307 15.8996 16.0067 16.3156 15.836C16.7316 15.6547 17.1742 15.564 17.6436 15.564C18.4969 15.564 19.1956 15.7507 19.7396 16.124C20.2836 16.4973 20.6782 16.9773 20.9236 17.564C21.1689 18.14 21.2916 18.7587 21.2916 19.42C21.2916 20.6467 20.9396 21.6333 20.2356 22.38C19.5422 23.1267 18.5502 23.5 17.2596 23.5C16.0436 23.5 15.0729 23.196 14.3476 22.588C13.6222 21.98 13.2116 21.1853 13.1156 20.204H15.2916C15.3876 20.6307 15.6009 20.972 15.9316 21.228C16.2729 21.484 16.7049 21.612 17.2276 21.612C17.8569 21.612 18.3316 21.4147 18.6516 21.02C18.9716 20.6253 19.1316 20.1027 19.1316 19.452C19.1316 18.7907 18.9662 18.2893 18.6356 17.948C18.3156 17.596 17.8409 17.42 17.2116 17.42C16.7636 17.42 16.3902 17.532 16.0916 17.756C15.7929 17.98 15.5796 18.2787 15.4516 18.652H13.3076V11.804H20.5396V13.772Z" fill="white"/>
</svg>
