<svg width="34" height="35" viewBox="0 0 34 35" fill="none" xmlns="http://www.w3.org/2000/svg">
<rect x="1" y="1.5" width="32" height="32" rx="16" stroke="#FA6369" stroke-width="2"/>
<rect x="5" y="5.5" width="24" height="24" rx="12" fill="#FA6369"/>
<path d="M18.7788 14.748C18.6721 14.3 18.4855 13.964 18.2188 13.74C17.9628 13.516 17.5895 13.404 17.0988 13.404C16.3628 13.404 15.8188 13.7027 15.4668 14.3C15.1255 14.8867 14.9495 15.8467 14.9388 17.18C15.1948 16.7533 15.5681 16.4227 16.0588 16.188C16.5495 15.9427 17.0828 15.82 17.6588 15.82C18.3521 15.82 18.9655 15.9693 19.4988 16.268C20.0321 16.5667 20.4481 17.004 20.7468 17.58C21.0455 18.1453 21.1948 18.828 21.1948 19.628C21.1948 20.3853 21.0401 21.0627 20.7308 21.66C20.4321 22.2467 19.9895 22.7053 19.4028 23.036C18.8161 23.3667 18.1175 23.532 17.3068 23.532C16.1975 23.532 15.3228 23.2867 14.6828 22.796C14.0535 22.3053 13.6108 21.6227 13.3548 20.748C13.1095 19.8627 12.9868 18.7747 12.9868 17.484C12.9868 15.532 13.3228 14.06 13.9948 13.068C14.6668 12.0653 15.7281 11.564 17.1788 11.564C18.2988 11.564 19.1681 11.868 19.7868 12.476C20.4055 13.084 20.7628 13.8413 20.8588 14.748H18.7788ZM17.1468 17.66C16.5815 17.66 16.1068 17.8253 15.7228 18.156C15.3388 18.4867 15.1468 18.9667 15.1468 19.596C15.1468 20.2253 15.3228 20.7213 15.6748 21.084C16.0375 21.4467 16.5441 21.628 17.1948 21.628C17.7708 21.628 18.2241 21.452 18.5548 21.1C18.8961 20.748 19.0668 20.2733 19.0668 19.676C19.0668 19.0573 18.9015 18.5667 18.5708 18.204C18.2508 17.8413 17.7761 17.66 17.1468 17.66Z" fill="white"/>
</svg>
