<svg width="33" height="41" viewBox="0 0 33 41" fill="none" xmlns="http://www.w3.org/2000/svg">
<g clip-path="url(#clip0_1097_1125)">
<mask id="mask0_1097_1125" style="mask-type:luminance" maskUnits="userSpaceOnUse" x="0" y="0" width="33" height="41">
<path d="M32.4532 0.773315H0.5V40.7412H32.4532V0.773315Z" fill="white"/>
</mask>
<g mask="url(#mask0_1097_1125)">
<path d="M23.7628 26.8183C23.7587 27.3357 23.5563 27.8305 23.1998 28.1948C22.8433 28.5592 22.3615 28.7636 21.8593 28.7636H11.1407C10.8914 28.7657 10.6443 28.717 10.4134 28.6202C10.1826 28.5234 9.9726 28.3804 9.79564 28.1996C9.61868 28.0187 9.47822 27.8035 9.38238 27.5665C9.28653 27.3294 9.23719 27.0751 9.23719 26.8183V19.1012C9.24012 18.5968 9.4285 18.1123 9.76435 17.7454C10.1002 17.3784 10.5586 17.1563 11.047 17.1238V14.0369C11.047 12.5446 11.6224 11.1133 12.6465 10.058C13.6705 9.00277 15.0595 8.40993 16.5078 8.40993C17.9561 8.40993 19.345 9.00277 20.3691 10.058C21.3932 11.1133 21.9685 12.5446 21.9685 14.0369V17.1238C22.4556 17.1565 22.9122 17.3792 23.2455 17.7465C23.5789 18.1139 23.7638 18.5983 23.7628 19.1012V26.8183ZM32.5 5.8215C32.4843 5.48435 32.3452 5.16585 32.1107 4.93017C31.8762 4.6945 31.5637 4.55915 31.2362 4.55141C21.8749 4.55141 17.3659 0.805425 17.3035 0.77327C17.0734 0.612225 16.8016 0.526123 16.5234 0.526123C16.2452 0.526123 15.9734 0.612225 15.7433 0.77327C15.7433 0.77327 11.1407 4.55141 1.76377 4.55141C1.43628 4.55915 1.12382 4.6945 0.889311 4.93017C0.654807 5.16585 0.515693 5.48435 0.499993 5.8215C0.499993 6.97906 -0.139695 34.5353 16.1021 40.4035C16.2368 40.4671 16.3831 40.5 16.5312 40.5C16.6793 40.5 16.8256 40.4671 16.9603 40.4035C33.2021 34.5193 32.5624 6.97906 32.5624 5.8215" fill="#CE2D34"/>
<path d="M17.5688 23.0401C17.7529 22.8775 17.9001 22.675 17.9999 22.4472C18.0996 22.2194 18.1495 21.9717 18.146 21.7218C18.1714 21.4857 18.1486 21.2466 18.0791 21.0201C18.0095 20.7936 17.8948 20.5846 17.7422 20.4064C17.5897 20.2283 17.4026 20.085 17.1931 19.9858C16.9836 19.8865 16.7563 19.8335 16.5258 19.8301C16.2952 19.8268 16.0666 19.8731 15.8544 19.9662C15.6423 20.0592 15.4514 20.197 15.2939 20.3706C15.1365 20.5442 15.0161 20.7497 14.9403 20.9741C14.8645 21.1985 14.8351 21.4368 14.854 21.6736C14.8505 21.9235 14.9004 22.1711 15.0002 22.399C15.0999 22.6268 15.2471 22.8292 15.4313 22.9919L14.7292 24.889C14.6988 24.9307 14.6824 24.9815 14.6824 25.0337C14.6824 25.0859 14.6988 25.1366 14.7292 25.1784C14.7538 25.2191 14.7884 25.2524 14.8295 25.275C14.8706 25.2976 14.9167 25.3086 14.9632 25.307H17.9744C18.0207 25.3071 18.0663 25.2954 18.1071 25.273C18.1479 25.2505 18.1828 25.218 18.2085 25.1784C18.2347 25.135 18.2487 25.0849 18.2487 25.0337C18.2487 24.9825 18.2347 24.9324 18.2085 24.889L17.5688 23.0401Z" fill="#CE2D34"/>
<path d="M16.5079 11.2074C15.7767 11.2073 15.075 11.5044 14.5551 12.0342C14.0351 12.5639 13.7389 13.2836 13.7307 14.037V17.1238H19.2227V14.037C19.2186 13.2878 18.928 12.5706 18.4139 12.0408C17.8998 11.5111 17.2037 11.2116 16.4767 11.2074" fill="#CE2D34"/>
</g>
</g>
<defs>
<clipPath id="clip0_1097_1125">
<rect width="32" height="40" fill="white" transform="translate(0.5 0.5)"/>
</clipPath>
</defs>
</svg>
