<svg width="47" height="39" viewBox="0 0 47 39" fill="none" xmlns="http://www.w3.org/2000/svg">
<g clip-path="url(#clip0_1097_1183)">
<mask id="mask0_1097_1183" style="mask-type:luminance" maskUnits="userSpaceOnUse" x="0" y="-1" width="47" height="40">
<path d="M46.9486 -0.403809H0.0202637V38.8055H46.9486V-0.403809Z" fill="white"/>
</mask>
<g mask="url(#mask0_1097_1183)">
<path d="M5.40482 32.3156C6.01686 32.3156 6.61515 32.491 7.12404 32.8196C7.63293 33.1482 8.02956 33.6153 8.26378 34.1618C8.498 34.7083 8.55928 35.3097 8.43988 35.8898C8.32047 36.47 8.02575 37.0029 7.59297 37.4212C7.1602 37.8394 6.60881 38.1243 6.00853 38.2397C5.40825 38.3551 4.78605 38.2959 4.2206 38.0695C3.65515 37.8431 3.17185 37.4598 2.83182 36.9679C2.49179 36.4761 2.3103 35.8979 2.3103 35.3063C2.3103 34.5131 2.63633 33.7524 3.21667 33.1915C3.797 32.6307 4.5841 32.3156 5.40482 32.3156Z" fill="#9DA3AE"/>
<path d="M5.40482 32.3156C6.01686 32.3156 6.61515 32.491 7.12404 32.8196C7.63293 33.1482 8.02956 33.6153 8.26378 34.1618C8.498 34.7083 8.55928 35.3097 8.43988 35.8898C8.32047 36.47 8.02575 37.0029 7.59297 37.4212C7.1602 37.8394 6.60881 38.1243 6.00853 38.2397C5.40825 38.3551 4.78605 38.2959 4.2206 38.0695C3.65515 37.8431 3.17185 37.4598 2.83182 36.9679C2.49179 36.4761 2.3103 35.8979 2.3103 35.3063C2.3103 34.5131 2.63633 33.7524 3.21667 33.1915C3.797 32.6307 4.5841 32.3156 5.40482 32.3156Z" stroke="white" stroke-width="0.88" stroke-miterlimit="1"/>
<path d="M30.6716 31.538C31.3693 31.535 32.0523 31.7321 32.6341 32.1043C33.2159 32.4765 33.6705 33.0071 33.9403 33.6289C34.2101 34.2508 34.2831 34.936 34.15 35.598C34.0169 36.2599 33.6836 36.8688 33.1924 37.3478C32.7012 37.8267 32.0741 38.1541 31.3904 38.2885C30.7067 38.423 29.9971 38.3585 29.3513 38.1031C28.7056 37.8478 28.1526 37.4132 27.7625 36.8541C27.3723 36.2951 27.1624 35.6368 27.1593 34.9625C27.1552 34.5142 27.2431 34.0695 27.4177 33.6542C27.5924 33.2389 27.8505 32.8612 28.177 32.5428C28.5036 32.2244 28.8922 31.9717 29.3203 31.7992C29.7485 31.6268 30.2077 31.538 30.6716 31.538Z" fill="#9DA3AE"/>
<path d="M30.6716 31.538C31.3693 31.535 32.0523 31.7321 32.6341 32.1043C33.2159 32.4765 33.6705 33.0071 33.9403 33.6289C34.2101 34.2508 34.2831 34.936 34.15 35.598C34.0169 36.2599 33.6836 36.8688 33.1924 37.3478C32.7012 37.8267 32.0741 38.1541 31.3904 38.2885C30.7067 38.423 29.9971 38.3585 29.3513 38.1031C28.7056 37.8478 28.1526 37.4132 27.7625 36.8541C27.3723 36.2951 27.1624 35.6368 27.1593 34.9625C27.1552 34.5142 27.2431 34.0695 27.4177 33.6542C27.5924 33.2389 27.8505 32.8612 28.177 32.5428C28.5036 32.2244 28.8922 31.9717 29.3203 31.7992C29.7485 31.6268 30.2077 31.538 30.6716 31.538Z" stroke="white" stroke-width="0.88" stroke-miterlimit="1"/>
<path d="M26.5713 19.7841V14.4306H31.9867L29.8824 19.7841H26.5713ZM4.90969 14.4306H9.87639V19.7841H5.60595L4.90969 14.4306ZM9.87639 8.56863V13.1296H4.81685L4.29078 8.94248L9.87639 8.56863ZM19.1599 13.1894V7.80598L24.6372 7.40222V13.1296L19.1599 13.1894ZM19.1599 14.4904H24.6372V19.7841H19.1599V14.4904ZM11.8105 13.1296V8.37423L17.2259 7.97048V13.1296H11.8105ZM17.2259 19.7841H11.8105V14.4306H17.2259V19.7841ZM35.0503 6.7592L32.5128 13.1296H26.5713V7.23773L34.8491 6.59471L35.0503 6.7592ZM46.4381 0L37.7735 0.0299079L36.5357 3.11043L0.5 5.92178L2.57333 23.1039H28.5673L26.8808 27.291L3.43979 28.6967L2.77447 31.1342L30.1919 30.6706L30.4704 29.6388L40.4966 4.08244H46.4381V0Z" fill="#9DA3AE"/>
</g>
</g>
<defs>
<clipPath id="clip0_1097_1183">
<rect width="46" height="39" fill="white" transform="translate(0.5)"/>
</clipPath>
</defs>
</svg>
