<svg width="45" height="43" viewBox="0 0 45 43" fill="none" xmlns="http://www.w3.org/2000/svg">
<g clip-path="url(#clip0_1097_5234)">
<mask id="mask0_1097_5234" style="mask-type:luminance" maskUnits="userSpaceOnUse" x="-1" y="0" width="46" height="44">
<path d="M44.9186 0.565674H-0.14917V43.9494H44.9186V0.565674Z" fill="white"/>
</mask>
<g mask="url(#mask0_1097_5234)">
<path d="M36.8761 6.14047H38.9918V21.9547H36.2793V6.14047H36.8761ZM43.0741 3.75515H32.4683C32.133 3.75317 31.8089 3.87195 31.5584 4.08855C31.3079 4.30515 31.1489 4.60422 31.1121 4.92804C31.1394 5.25897 31.2943 5.56769 31.5457 5.79247C31.7971 6.01725 32.1266 6.14153 32.4683 6.14047H33.499V38.3488C33.5688 39.3392 34.0325 40.2644 34.7919 40.9285C35.5512 41.5926 36.5468 41.9436 37.5678 41.907C38.6016 41.9614 39.6159 41.6189 40.3923 40.9533C41.1686 40.2877 41.6446 39.3523 41.7178 38.3488V6.14047H43.0741C43.4158 6.14153 43.7452 6.01725 43.9967 5.79247C44.2481 5.56769 44.403 5.25897 44.4303 4.92804C44.3934 4.60422 44.2344 4.30515 43.984 4.08855C43.7335 3.87195 43.4094 3.75317 43.0741 3.75515Z" fill="#9DA3AE"/>
<path d="M36.8761 6.14047H38.9918V21.9547H36.2793V6.14047H36.8761ZM43.0741 3.75515H32.4683C32.133 3.75317 31.8089 3.87195 31.5584 4.08855C31.3079 4.30515 31.1489 4.60422 31.1121 4.92804C31.1394 5.25897 31.2943 5.56769 31.5457 5.79247C31.7971 6.01725 32.1266 6.14153 32.4683 6.14047H33.499V38.3488C33.5688 39.3392 34.0325 40.2644 34.7919 40.9285C35.5512 41.5926 36.5468 41.9436 37.5678 41.907C38.6016 41.9614 39.6159 41.6189 40.3923 40.9533C41.1686 40.2877 41.6446 39.3523 41.7178 38.3488V6.14047H43.0741C43.4158 6.14153 43.7452 6.01725 43.9967 5.79247C44.2481 5.56769 44.403 5.25897 44.4303 4.92804C44.3934 4.60422 44.2344 4.30515 43.984 4.08855C43.7335 3.87195 43.4094 3.75317 43.0741 3.75515Z" stroke="#FDFEFF" stroke-width="0.8" stroke-miterlimit="1"/>
<path d="M26.2161 31.2455H8.47648L21.5506 26.2641C21.785 26.1867 21.9897 26.0419 22.1374 25.8489C22.2852 25.6559 22.3691 25.4238 22.3779 25.1834V10.4103H26.2839L26.2161 31.2455ZM23.6935 35.9898H12.6673V33.6704H23.6935C23.5323 34.037 23.4492 34.4315 23.4492 34.8301C23.4492 35.2287 23.5323 35.6232 23.6935 35.9898ZM3.59402 33.6704H7.20161V35.9503C6.44326 35.927 5.70598 35.7022 5.06993 35.3002C4.43389 34.8983 3.92342 34.3345 3.59402 33.6704ZM27.5994 33.6704C27.9368 33.672 28.2627 33.5514 28.5135 33.3321C28.7643 33.1128 28.9219 32.8105 28.9557 32.4843V9.21103C28.9219 8.88483 28.7643 8.58256 28.5135 8.36324C28.2627 8.14393 27.9368 8.02332 27.5994 8.02496H22.3101V2.23958C22.3008 2.02852 22.2361 1.82328 22.1222 1.64337C22.0082 1.46345 21.8488 1.31484 21.6591 1.21165C21.4476 1.11244 21.2158 1.06091 20.981 1.06091C20.7462 1.06091 20.5144 1.11244 20.3029 1.21165L1.38335 8.47303C1.20137 8.53568 1.03684 8.63851 0.902693 8.77343C0.768551 8.90835 0.668458 9.07168 0.610292 9.25056H0.54248V32.458C0.650515 34.0799 1.39952 35.5985 2.63294 36.6963C3.86636 37.7941 5.48872 38.3862 7.16092 38.3488V42.1178L9.96834 39.2449L12.6808 42.1178V38.3751H27.5994C27.7715 38.3927 27.9454 38.375 28.1099 38.3231C28.2744 38.2711 28.4258 38.1862 28.5544 38.0737C28.6829 37.9613 28.7857 37.8238 28.8561 37.6703C28.9265 37.5168 28.9628 37.3506 28.9628 37.1825C28.9628 37.0144 28.9265 36.8482 28.8561 36.6947C28.7857 36.5411 28.6829 36.4037 28.5544 36.2912C28.4258 36.1787 28.2744 36.0938 28.1099 36.0419C27.9454 35.99 27.7715 35.9722 27.5994 35.9898C27.4276 36.0151 27.2522 36.004 27.0852 35.9573C26.9182 35.9106 26.7636 35.8294 26.6319 35.7193C26.5001 35.6092 26.3944 35.4727 26.3219 35.3193C26.2495 35.1658 26.212 34.999 26.212 34.8301C26.212 34.6613 26.2495 34.4944 26.3219 34.3409C26.3944 34.1875 26.5001 34.051 26.6319 33.9409C26.7636 33.8308 26.9182 33.7496 27.0852 33.7029C27.2522 33.6563 27.4276 33.6452 27.5994 33.6704Z" fill="#9DA3AE"/>
<path d="M26.2161 31.2455H8.47648L21.5506 26.2641C21.785 26.1867 21.9897 26.0419 22.1374 25.8489C22.2852 25.6559 22.3691 25.4238 22.3779 25.1834V10.4103H26.2839L26.2161 31.2455ZM23.6935 35.9898H12.6673V33.6704H23.6935C23.5323 34.037 23.4492 34.4315 23.4492 34.8301C23.4492 35.2287 23.5323 35.6232 23.6935 35.9898ZM3.59402 33.6704H7.20161V35.9503C6.44326 35.927 5.70598 35.7022 5.06993 35.3002C4.43389 34.8983 3.92342 34.3346 3.59402 33.6704ZM27.5994 33.6704C27.9368 33.672 28.2627 33.5514 28.5135 33.3321C28.7643 33.1128 28.9219 32.8105 28.9557 32.4843V9.21103C28.9219 8.88483 28.7643 8.58256 28.5135 8.36324C28.2627 8.14393 27.9368 8.02332 27.5994 8.02496H22.3101V2.23958C22.3008 2.02852 22.2361 1.82328 22.1222 1.64337C22.0082 1.46345 21.8488 1.31484 21.6591 1.21165C21.4476 1.11244 21.2158 1.06091 20.981 1.06091C20.7462 1.06091 20.5144 1.11244 20.3029 1.21165L1.38335 8.47303C1.20137 8.53568 1.03684 8.63851 0.902693 8.77343C0.768551 8.90835 0.668458 9.07168 0.610292 9.25056H0.54248V32.458C0.650515 34.0799 1.39952 35.5985 2.63294 36.6963C3.86636 37.7941 5.48872 38.3862 7.16093 38.3488V42.1178L9.96834 39.2449L12.6808 42.1178V38.3751H27.5994C27.7715 38.3927 27.9454 38.375 28.1099 38.3231C28.2744 38.2711 28.4258 38.1862 28.5544 38.0738C28.6829 37.9613 28.7857 37.8238 28.8561 37.6703C28.9265 37.5168 28.9628 37.3506 28.9628 37.1825C28.9628 37.0144 28.9265 36.8482 28.8561 36.6947C28.7857 36.5411 28.6829 36.4037 28.5544 36.2912C28.4258 36.1787 28.2744 36.0938 28.1099 36.0419C27.9454 35.99 27.7715 35.9722 27.5994 35.9898C27.4276 36.0151 27.2522 36.004 27.0852 35.9573C26.9182 35.9106 26.7636 35.8294 26.6319 35.7193C26.5001 35.6092 26.3944 35.4727 26.3219 35.3193C26.2495 35.1658 26.212 34.999 26.212 34.8301C26.212 34.6613 26.2495 34.4944 26.3219 34.3409C26.3944 34.1875 26.5001 34.051 26.6319 33.9409C26.7636 33.8308 26.9182 33.7496 27.0852 33.7029C27.2522 33.6563 27.4276 33.6452 27.5994 33.6704Z" stroke="#FDFEFF" stroke-width="0.8" stroke-miterlimit="1"/>
</g>
</g>
<defs>
<clipPath id="clip0_1097_5234">
<rect width="45" height="42" fill="white" transform="translate(0 0.5)"/>
</clipPath>
</defs>
</svg>
