<svg width="39" height="41" viewBox="0 0 39 41" fill="none" xmlns="http://www.w3.org/2000/svg">
<g clip-path="url(#clip0_1097_3224)">
<mask id="mask0_1097_3224" style="mask-type:luminance" maskUnits="userSpaceOnUse" x="0" y="0" width="39" height="41">
<path d="M38.7169 0.773315H0V40.4839H38.7169V0.773315Z" fill="white"/>
</mask>
<g mask="url(#mask0_1097_3224)">
<path d="M37.3488 34.1174C37.3488 35.3511 36.8705 36.5346 36.0186 37.4085C35.1668 38.2824 34.0108 38.7755 32.804 38.7798H6.19597C5.59723 38.7819 5.00402 38.6627 4.45065 38.4289C3.89728 38.1952 3.39474 37.8516 2.9721 37.418C2.54945 36.9844 2.2151 36.4694 1.98837 35.9029C1.76165 35.3364 1.64705 34.7295 1.65121 34.1174V6.78619C1.65537 5.55671 2.13603 4.37903 2.98789 3.51115C3.83974 2.64327 4.99334 2.15596 6.19597 2.15597H32.804C34.0095 2.16443 35.1631 2.65887 36.0141 3.53187C36.865 4.40486 37.3447 5.58588 37.3488 6.81835V34.1174ZM32.804 0.50002H6.19597C5.38304 0.497906 4.5777 0.659774 3.82606 0.976352C3.07442 1.29293 2.39126 1.758 1.81571 2.34492C1.24015 2.93184 0.783512 3.62909 0.471943 4.39671C0.160374 5.16433 -2.59184e-06 5.98726 3.98659e-08 6.81835V34.1495C-0.000185829 35.8385 0.649575 37.4598 1.80891 38.6631C2.96824 39.8664 4.54408 40.5551 6.19597 40.5804H32.804C34.4559 40.5551 36.0318 39.8664 37.1911 38.6631C38.3504 37.4598 39.0002 35.8385 39 34.1495V6.81835C38.9716 5.14892 38.3092 3.55623 37.1529 2.37709C35.9966 1.19796 34.437 0.524813 32.804 0.50002Z" fill="#9DA3AE"/>
<path d="M26.8126 9.50317H12.1719C11.7286 9.50317 11.2897 9.59269 10.8804 9.7666C10.471 9.9405 10.0994 10.1954 9.78665 10.5166C9.47394 10.8377 9.22638 11.2189 9.05819 11.6382C8.88999 12.0575 8.80447 12.5066 8.80655 12.9598V27.9758C8.80235 28.4289 8.88652 28.8782 9.05416 29.2975C9.2218 29.7169 9.46953 30.0979 9.78287 30.4182C10.0962 30.7386 10.4689 30.9918 10.8791 31.1632C11.2893 31.3346 11.7288 31.4207 12.1719 31.4164H23.6832C23.7889 31.4164 23.8906 31.3746 23.9669 31.2997C24.0431 31.2247 24.088 31.1225 24.092 31.0144C24.092 30.9595 24.0815 30.9052 24.0609 30.8545C24.0404 30.8038 24.0102 30.7577 23.9723 30.7189C23.9343 30.68 23.8892 30.6492 23.8396 30.6282C23.79 30.6072 23.7369 30.5964 23.6832 30.5964H12.1719C11.4948 30.5922 10.8468 30.3142 10.3695 29.8232C9.89218 29.3322 9.62428 28.6681 9.62429 27.9758V12.9598C9.63669 12.2789 9.91106 11.6304 10.3879 11.1549C10.8648 10.6794 11.5058 10.4152 12.1719 10.4196H26.8126C27.4841 10.4196 28.1281 10.6923 28.6029 11.1777C29.0777 11.6631 29.3444 12.3215 29.3444 13.008V20.0659H26.9541V15.0016C26.9562 14.7152 26.9028 14.4312 26.7971 14.166C26.6913 13.9009 26.5353 13.6597 26.3379 13.4564C26.1406 13.2532 25.9058 13.0919 25.6472 12.9818C25.3886 12.8717 25.1113 12.8151 24.8311 12.8151H14.1533C13.8725 12.8151 13.5944 12.8716 13.3349 12.9815C13.0754 13.0914 12.8396 13.2524 12.641 13.4555C12.4424 13.6585 12.2849 13.8996 12.1774 14.1648C12.0699 14.4301 12.0146 14.7144 12.0146 15.0016V25.934C12.0306 26.5073 12.2616 27.0522 12.6597 27.4562C13.0578 27.8602 13.5925 28.0923 14.1533 28.1045H24.8154C25.3841 28.096 25.9264 27.858 26.3241 27.4424C26.7218 27.0267 26.9426 26.4672 26.9384 25.8858V20.9019H29.7533C29.8618 20.9019 29.9658 20.8578 30.0424 20.7795C30.1191 20.7011 30.1622 20.5947 30.1622 20.4839V12.9598C30.1622 12.0458 29.8081 11.169 29.1775 10.5213C28.5468 9.87348 27.6909 9.50742 26.7969 9.50317" fill="#9DA3AE"/>
<path d="M31.7347 25.4518L24.3279 33.0402H10.1747C9.78922 33.0423 9.40718 32.9665 9.05048 32.8172C8.69379 32.6679 8.36948 32.4479 8.0962 32.17C7.82292 31.8921 7.60606 31.5618 7.45808 31.1979C7.3101 30.8341 7.23393 30.4439 7.23393 30.0498V10.918C7.23392 10.1234 7.54159 9.36115 8.08969 8.7978C8.63778 8.23444 9.38173 7.91582 10.1589 7.91157H28.794C29.5739 7.91157 30.3219 8.22832 30.8734 8.79214C31.4249 9.35595 31.7347 10.1206 31.7347 10.918V25.4518ZM28.794 7.05948H10.1589C9.16486 7.06798 8.21456 7.47876 7.51605 8.20192C6.81754 8.92507 6.42772 9.90169 6.43192 10.918V30.0498C6.43602 31.0606 6.82951 32.029 7.52713 32.7452C8.22474 33.4614 9.1703 33.8678 10.1589 33.8762H24.6896L32.5525 25.8376V10.918C32.5546 10.4107 32.4584 9.908 32.2694 9.4389C32.0805 8.9698 31.8026 8.5436 31.4517 8.18487C31.1008 7.82615 30.6839 7.54202 30.2251 7.34886C29.7662 7.15571 29.2745 7.05735 28.7783 7.05948" fill="#9DA3AE"/>
<path d="M34.5967 27.4936L26.3878 35.918H8.17731C7.18323 35.9138 6.23129 35.5071 5.52983 34.7869C4.82838 34.0668 4.43456 33.0919 4.43457 32.0756V8.81193C4.44694 7.80401 4.84622 6.84142 5.54634 6.13167C6.24646 5.42192 7.19135 5.02186 8.17731 5.01772H30.8225C31.314 5.01348 31.8015 5.10826 32.2572 5.29664C32.7129 5.48503 33.1278 5.76333 33.4782 6.11566C33.8287 6.46799 34.1079 6.88744 34.2998 7.35007C34.4917 7.8127 34.5926 8.30944 34.5967 8.81193V27.4936ZM30.8225 4.19778H8.17731C6.97444 4.19767 5.8199 4.68174 4.96348 5.54526C4.10706 6.40878 3.61764 7.58231 3.6011 8.81193V32.0756C3.59903 32.6913 3.71587 33.3014 3.94492 33.8709C4.17397 34.4404 4.51072 34.958 4.93587 35.3942C5.36102 35.8303 5.86619 36.1764 6.42243 36.4125C6.97867 36.6486 7.57503 36.7701 8.17731 36.7701H26.7338L35.4144 27.8312V8.81193C35.3978 7.57952 34.9063 6.40357 34.0464 5.5396C33.1866 4.67563 32.0281 4.19343 30.8225 4.19778Z" fill="#9DA3AE"/>
</g>
</g>
<defs>
<clipPath id="clip0_1097_3224">
<rect width="39" height="40" fill="white" transform="translate(0 0.5)"/>
</clipPath>
</defs>
</svg>
