<svg width="39" height="59" viewBox="0 0 39 59" fill="none" xmlns="http://www.w3.org/2000/svg">
<g clip-path="url(#clip0_1097_1581)">
<path fill-rule="evenodd" clip-rule="evenodd" d="M27.3575 19.9144C27.4695 21.0366 27.3575 21.2985 26.667 21.7847C26.0904 22.1485 25.4607 22.4198 24.8006 22.589C22.9342 22.9257 21.0678 23.2623 19.2014 23.4494C18.1493 23.4769 17.1131 23.7125 16.1522 24.1426C15.1913 24.5727 14.3247 25.1889 13.6021 25.9557C13.0249 26.422 12.5805 27.0326 12.3137 27.7259C12.0469 28.4192 11.9673 29.1707 12.0827 29.9047C12.1982 30.6387 12.5047 31.3293 12.9713 31.9067C13.4379 32.4842 14.0482 32.9282 14.7406 33.194L17.9322 31.4545L17.3723 31.0618C16.9637 30.8388 16.6346 30.4939 16.4305 30.0749C16.2265 29.656 16.1577 29.1837 16.2338 28.7238C16.3644 27.6764 17.223 27.4332 18.1002 27.2836C19.276 27.0155 20.4662 26.8157 21.665 26.6851C23.5262 26.5385 25.331 25.9761 26.9469 25.0392C28.1992 24.397 29.2371 23.4025 29.9332 22.1775C30.3753 21.4208 30.4998 20.5193 30.2794 19.6707C30.0589 18.8221 29.5116 18.0958 28.7573 17.6512L28.3841 17.4642C26.9493 16.8504 25.3705 16.6558 23.83 16.9031C23.2695 17.02 22.7574 17.304 22.361 17.718C21.9646 18.1319 21.7025 18.6563 21.609 19.2223C21.4224 20.1762 21.721 20.6812 22.6729 20.887C23.1569 21.021 23.6668 21.0313 24.1559 20.9169C24.6449 20.8026 25.0976 20.5672 25.4725 20.2323C25.7059 19.9757 26.0185 19.8049 26.3602 19.7472C26.702 19.6896 27.0531 19.7484 27.3575 19.9144ZM18.3055 39.0295C16.6071 37.3649 16.8124 36.2427 18.9774 35.2888L19.5186 35.1017C20.605 34.773 21.6707 34.3796 22.7102 33.9234C23.842 33.3596 24.8908 32.6421 25.8271 31.7912C26.4763 31.1095 26.8523 30.2121 26.8833 29.2703C26.9143 28.3284 26.5981 27.4082 25.9951 26.6851L22.2623 27.6016C22.66 28.0013 22.8834 28.5427 22.8834 29.1072C22.8834 29.6717 22.66 30.2132 22.2623 30.6129C22.0814 30.7836 21.8732 30.9227 21.6463 31.0243C20.9098 31.4514 20.135 31.8083 19.332 32.0905C17.6501 32.5919 16.1093 33.4825 14.834 34.6903C14.1366 35.2702 13.6962 36.1028 13.6088 37.0067C13.5214 37.9106 13.7941 38.8125 14.3674 39.5158C14.7392 39.9552 15.2137 40.2957 15.7485 40.5071L18.3055 39.0295ZM18.6788 6.44776V22.6077L20.5452 22.5142V6.44776C22.4116 4.74573 22.6729 3.00629 21.4224 1.67833C21.1996 1.42247 20.9286 1.21318 20.625 1.06245C20.3214 0.911711 19.9911 0.822494 19.653 0.799906C19.3149 0.777319 18.9757 0.821806 18.6548 0.930818C18.3339 1.03983 18.0376 1.21122 17.7829 1.43518C17.693 1.50662 17.6115 1.58821 17.5403 1.67833C16.3458 3.17462 16.7377 4.93276 18.6788 6.42905V6.44776ZM20.3585 38.244C20.3383 37.3753 20.3819 36.5064 20.4892 35.6441C21.3104 36.1117 22.057 36.4484 22.0943 37.3275C22.1316 38.2065 21.3477 38.618 20.6945 38.936C20.0412 39.254 19.5186 39.4036 18.9401 39.6467C18.2099 39.9443 17.4992 40.2878 16.8124 40.6754C16.32 40.9805 15.9051 41.3962 15.6006 41.8896C15.2962 42.383 15.1104 42.9406 15.0579 43.5184C14.9397 44.0128 14.9829 44.5321 15.1811 45.0001C15.3793 45.4681 15.7221 45.86 16.1591 46.1182L18.1375 44.7715C17.8202 43.3875 17.9509 43.0882 19.2014 42.5084C19.6493 42.3026 20.1532 42.153 20.6385 41.966C21.5904 41.5545 22.5049 41.2552 23.5128 40.7689C24.0848 40.4592 24.5692 40.009 24.9204 39.4606C25.2717 38.9123 25.4785 38.2836 25.5214 37.6333C25.5642 36.9831 25.4419 36.3326 25.1657 35.7427C24.8894 35.1527 24.4684 34.6426 23.942 34.2601L18.9587 36.0369V38.8238L20.3585 38.244ZM11.8851 19.746C12.2018 19.6216 12.5484 19.5943 12.8807 19.6675C13.213 19.7408 13.516 19.9114 13.7515 20.1575C14.1083 20.4842 14.5425 20.714 15.0128 20.8253C15.4832 20.9366 15.9741 20.9256 16.4391 20.7935C17.4469 20.6251 17.7642 20.064 17.5029 19.054C17.4261 18.4504 17.1418 17.8924 16.6991 17.476C16.2563 17.0596 15.6826 16.8107 15.0766 16.7722C13.6865 16.7339 12.2996 16.9234 10.9705 17.3333C10.5575 17.4818 10.1777 17.7104 9.85283 18.0061C9.52797 18.3017 9.26443 18.6586 9.07724 19.0564C8.89006 19.4541 8.7829 19.8849 8.76189 20.3242C8.74088 20.7634 8.80643 21.2025 8.9548 21.6164C9.07539 21.9649 9.25886 22.2882 9.49605 22.5703C10.3161 23.8061 11.4955 24.7594 12.8742 25.301L16.3458 22.9444C16.0326 22.9205 15.7245 22.8512 15.4312 22.7386C14.4153 22.4291 13.4182 22.0606 12.445 21.6351C12.1316 21.5174 11.8773 21.2803 11.7374 20.9755C11.5976 20.6708 11.5836 20.323 11.6984 20.0079C11.691 19.9333 11.691 19.8581 11.6984 19.7835L11.8851 19.746ZM20.5825 43.0134C21.1238 43.5932 21.0304 44.0234 20.5825 44.36C20.1346 44.6967 19.8173 44.8089 19.4253 45.0147C18.4958 45.4813 17.6035 46.0191 16.7564 46.6232C16.3076 46.9617 16.0106 47.4644 15.9302 48.0215C15.8497 48.5786 15.9924 49.145 16.3271 49.5971C16.397 49.6996 16.4784 49.7937 16.5697 49.8776C16.9054 50.2813 17.2737 50.6567 17.6709 50.9998C18.8094 50.3826 18.0069 49.223 18.5854 48.3626L19.9852 47.895C20.6612 47.6994 21.3224 47.4557 21.9636 47.1656C22.4035 46.9261 22.7909 46.6004 23.1026 46.2078C23.4144 45.8152 23.6441 45.3638 23.7782 44.8804C23.9123 44.3971 23.9479 43.8916 23.8831 43.3941C23.8183 42.8967 23.6542 42.4173 23.4008 41.9847L23.2888 41.7976L18.8281 43.4249V44.6406C19.2643 44.618 19.6788 44.4427 19.9994 44.1454C20.3199 43.8481 20.5263 43.4475 20.5825 43.0134ZM20.5825 48.9424L20.8065 49.2417C19.2387 51.1121 16.719 51.7293 15.2073 53.6558C15.2797 53.692 15.3596 53.7108 15.4406 53.7108C15.5215 53.7108 15.6014 53.692 15.6739 53.6558C17.5403 52.8141 19.4067 51.9724 21.2731 51.0934C21.9623 50.7462 22.5923 50.2916 23.1395 49.7467C23.4331 49.4083 23.6128 48.9858 23.653 48.5392C23.6932 48.0926 23.5919 47.6447 23.3634 47.2591L18.9027 48.9424V50.2143L20.5825 48.9424ZM18.7907 52.8702C18.9401 54.4039 19.052 55.8815 19.22 57.3404C19.22 57.5835 19.556 57.7893 19.7239 58.0137L20.0039 57.9202C20.336 56.1032 20.548 54.2663 20.6385 52.4213L24.0913 53.5996C24.0828 53.5252 24.0938 53.4498 24.1232 53.3809C24.1527 53.312 24.1996 53.252 24.2593 53.2069L22.1316 51.3365L18.7907 52.8702ZM18.7907 31.174L20.3959 30.5942V27.639L18.7907 27.9008V31.174Z" fill="#9DA3AE" stroke="#FEFFFF" stroke-width="0.32" stroke-miterlimit="10"/>
<path fill-rule="evenodd" clip-rule="evenodd" d="M18.1934 8.28075V15.1824C17.0857 15.8641 15.754 16.0795 14.4885 15.7818C13.223 15.484 12.1262 14.6971 11.437 13.5926C11.0966 13.9077 10.6907 14.1432 10.2486 14.2823C9.80648 14.4213 9.33909 14.4605 8.88006 14.3968C8.40071 14.2074 7.97763 13.8983 7.65098 13.4989C7.32433 13.0996 7.10495 12.6232 7.01365 12.115C5.76316 12.115 4.47534 12.302 4.25137 10.2446C2.06768 10.2259 1.39578 9.73963 0.891846 7.75705H1.91837C4.45668 7.62612 7.01365 7.57001 9.55196 7.32686C10.8241 7.08649 12.073 6.73604 13.2848 6.27946C13.7966 6.08937 14.3203 5.93317 14.8526 5.81187C15.0499 5.76182 15.2553 5.75175 15.4566 5.78223C15.6579 5.81271 15.8511 5.88314 16.0249 5.98939C16.1988 6.09564 16.3497 6.23557 16.4688 6.401C16.588 6.56643 16.673 6.75402 16.719 6.95279C16.7277 7.02109 16.7277 7.09023 16.719 7.15853C16.7785 7.49732 16.9634 7.80112 17.2367 8.00918C17.5101 8.21724 17.8518 8.31423 18.1934 8.28075Z" fill="#9DA3AE" stroke="#FEFFFF" stroke-width="0.32" stroke-miterlimit="10"/>
<path fill-rule="evenodd" clip-rule="evenodd" d="M32.2287 12.2272C31.3515 14.6025 29.8024 15.0514 27.768 13.5925C25.9016 16.7535 23.5312 15.7061 20.9929 15.3133V8.28071C21.8888 8.28071 22.2994 7.64479 22.6354 6.72831C22.7126 6.53079 22.836 6.3547 22.9951 6.21477C23.1542 6.07485 23.3444 5.97516 23.5499 5.92405C24.1842 5.83621 24.8304 5.92687 25.4163 6.1859C27.2357 7.01554 29.2038 7.46728 31.2022 7.51386C33.5352 7.64479 35.8495 7.7009 38.1825 7.81312C38.1825 8.45972 37.9275 9.08011 37.473 9.53908C37.0185 9.99804 36.4014 10.2584 35.7562 10.2633C35.5644 10.2917 35.3694 10.2917 35.1776 10.2633C34.767 10.8618 34.487 11.61 34.0204 11.9092C33.4486 12.1279 32.8406 12.2358 32.2287 12.2272Z" fill="#9DA3AE" stroke="#FEFFFF" stroke-width="0.32" stroke-miterlimit="10"/>
<path fill-rule="evenodd" clip-rule="evenodd" d="M27.3575 19.9143C27.0524 19.7585 26.7048 19.707 26.3677 19.7678C26.0307 19.8286 25.7228 19.9983 25.4911 20.251C25.118 20.5889 24.6654 20.8262 24.1757 20.9407C23.686 21.0552 23.1753 21.0432 22.6915 20.9056C21.7396 20.7186 21.441 20.2136 21.6276 19.2597C21.7198 18.6962 21.9793 18.1736 22.3721 17.7599C22.7649 17.3462 23.2729 17.0607 23.83 16.9405C25.3704 16.6932 26.9492 16.8877 28.384 17.5016C28.7835 17.6708 29.1456 17.9176 29.4494 18.2278C29.7532 18.538 29.9927 18.9054 30.154 19.3088C30.3154 19.7122 30.3955 20.1437 30.3896 20.5782C30.3837 21.0128 30.292 21.4419 30.1198 21.8408C30.0626 21.9833 29.994 22.121 29.9145 22.2523C29.22 23.4719 28.1897 24.4654 26.9469 25.114C25.3378 26.0511 23.539 26.6136 21.6836 26.7599C20.508 26.8039 19.3393 26.9605 18.1935 27.2275C17.3909 27.3771 16.551 27.6203 16.3271 28.6677C16.2538 29.1274 16.3239 29.5986 16.5276 30.0169C16.7313 30.4353 17.0589 30.7806 17.4656 31.0056L18.0441 31.3984L14.8339 33.1378C14.3155 32.9352 13.842 32.6323 13.4404 32.2463C13.0389 31.8603 12.7171 31.3988 12.4935 30.8882C12.2699 30.3775 12.1489 29.8278 12.1374 29.2703C12.1258 28.7128 12.224 28.1584 12.4263 27.639C12.6967 26.9614 13.1332 26.3632 13.6954 25.8995C14.418 25.1327 15.2846 24.5166 16.2455 24.0865C17.2064 23.6564 18.2426 23.4208 19.2946 23.3932C21.161 23.2062 23.0274 22.8695 24.8939 22.5329C25.5539 22.3637 26.1836 22.0923 26.7603 21.7286C27.4135 21.2984 27.4695 21.074 27.3575 19.9143Z" fill="#9DA3AE" stroke="#FEFFFF" stroke-width="0.32" stroke-miterlimit="10"/>
<path fill-rule="evenodd" clip-rule="evenodd" d="M18.3054 39.0108L15.5618 40.5071C14.7313 40.1628 14.0697 39.5045 13.7203 38.6747C13.3709 37.845 13.362 36.9106 13.6954 36.0743C13.9066 35.5335 14.2538 35.0568 14.7033 34.6902C15.9646 33.4829 17.4931 32.592 19.164 32.0904C19.9682 31.8114 20.7434 31.4544 21.4783 31.0243C21.7947 30.8906 22.0738 30.6814 22.2912 30.415C22.5087 30.1486 22.6579 29.8331 22.7259 29.4957C22.794 29.1584 22.7788 28.8095 22.6818 28.4794C22.5847 28.1493 22.4086 27.848 22.1689 27.6015L25.9017 26.6851C26.5152 27.4106 26.8378 28.3387 26.8067 29.2892C26.7757 30.2397 26.3933 31.1448 25.7337 31.8286C24.7974 32.6794 23.7486 33.3969 22.6168 33.9608C21.6087 34.4105 20.5741 34.7978 19.5186 35.1204L18.9773 35.3074C16.8123 36.2239 16.607 37.3461 18.3054 39.0108Z" fill="#9DA3AE" stroke="#FEFFFF" stroke-width="0.32" stroke-miterlimit="10"/>
<path fill-rule="evenodd" clip-rule="evenodd" d="M18.6786 6.42904C16.8122 4.93275 16.383 3.17461 17.5401 1.79054C17.7613 1.53528 18.0306 1.32638 18.3327 1.17589C18.6347 1.02541 18.9635 0.936294 19.3 0.913693C19.6366 0.891092 19.9743 0.935448 20.2937 1.04421C20.6131 1.15297 20.9078 1.32398 21.161 1.54739C21.2464 1.62368 21.3275 1.70487 21.4036 1.79054C22.7101 3.1185 22.4301 4.85793 20.5264 6.55996V22.589L18.66 22.7012L18.6786 6.42904Z" fill="#9DA3AE" stroke="#FEFFFF" stroke-width="0.32" stroke-miterlimit="10"/>
<path fill-rule="evenodd" clip-rule="evenodd" d="M20.3584 38.3562L18.8466 38.936V36.1678L23.8299 34.2975C24.2567 34.5906 24.6204 34.9667 24.8993 35.4034C25.1783 35.8401 25.3669 36.3285 25.454 36.8396C25.541 37.3508 25.5247 37.8742 25.406 38.3789C25.2874 38.8836 25.0687 39.3592 24.7631 39.7777C24.4162 40.2372 23.9776 40.6194 23.4753 40.8999C22.5421 41.3862 21.6089 41.6854 20.601 42.0782C20.1158 42.2652 19.6305 42.4149 19.1639 42.6393C17.9134 43.2004 17.7828 43.4997 18.1001 44.8837L16.1217 46.2491C15.6495 45.991 15.2771 45.5818 15.064 45.0869C14.8509 44.592 14.8093 44.0398 14.9458 43.5184C15.0031 42.9422 15.1931 42.3873 15.5007 41.8972C15.8084 41.4071 16.2254 40.9953 16.7189 40.6941C17.3908 40.3201 18.1001 39.9834 18.828 39.6654C19.5559 39.3475 20.0225 39.2539 20.5824 38.9547C21.1423 38.6554 22.0382 38.3001 21.9822 37.3649C21.9262 36.4297 21.1983 36.1304 20.3771 35.6629C20.4302 36.5601 20.4239 37.4598 20.3584 38.3562Z" fill="#9DA3AE" stroke="#FEFFFF" stroke-width="0.32" stroke-miterlimit="10"/>
<path fill-rule="evenodd" clip-rule="evenodd" d="M11.6983 19.7835C11.5271 20.0766 11.4781 20.4256 11.5619 20.7547C11.6458 21.0839 11.8557 21.3666 12.1463 21.5416L12.3516 21.6351C13.3553 22.0641 14.3836 22.4326 15.4312 22.7386C15.771 22.7818 16.1036 22.8699 16.4203 23.0005L12.8742 25.3572C11.4822 24.8203 10.2939 23.8585 9.47732 22.6077C8.91303 21.9232 8.64321 21.042 8.72722 20.1581C8.81122 19.2742 9.24217 18.4599 9.92526 17.8944C10.2006 17.6533 10.5166 17.4633 10.8585 17.3333C12.1939 16.9233 13.587 16.7338 14.9832 16.7722C15.5991 16.8109 16.1821 17.0637 16.6319 17.4871C17.0816 17.9105 17.3699 18.4779 17.4469 19.0914C17.7082 20.1014 17.4469 20.6625 16.4017 20.8309C15.9342 20.9683 15.4392 20.982 14.9649 20.8705C14.4906 20.7591 14.0532 20.5263 13.6954 20.1949C13.4501 19.9215 13.1238 19.7341 12.7644 19.66C12.405 19.586 12.0314 19.6292 11.6983 19.7835Z" fill="#9DA3AE" stroke="#FEFFFF" stroke-width="0.32" stroke-miterlimit="10"/>
<path fill-rule="evenodd" clip-rule="evenodd" d="M20.5825 43.0134C20.3772 44.0795 19.6866 44.3601 18.7161 44.5471V43.3314L23.2328 41.6481C23.5116 42.0643 23.704 42.5325 23.7986 43.0248C23.8933 43.5171 23.8882 44.0234 23.7837 44.5136C23.6793 45.0039 23.4775 45.4681 23.1905 45.8787C22.9035 46.2893 22.5371 46.6379 22.113 46.9038L21.9263 47.016C21.2788 47.3064 20.6114 47.5502 19.9293 47.7455L18.5295 48.213C17.9695 49.0734 18.7721 50.233 17.6336 50.8503C17.2342 50.5371 16.8597 50.1931 16.5137 49.8216C16.1216 49.4227 15.9019 48.8852 15.9019 48.3253C15.9019 47.7653 16.1216 47.2279 16.5137 46.829C16.5931 46.7278 16.6875 46.6395 16.7937 46.5671C17.637 46.0055 18.5231 45.5114 19.444 45.0895L20.6012 44.4349C21.0304 44.0608 21.0304 43.6307 20.5825 43.0134Z" fill="#9DA3AE" stroke="#FEFFFF" stroke-width="0.32" stroke-miterlimit="10"/>
<path fill-rule="evenodd" clip-rule="evenodd" d="M20.5823 48.9799L18.9025 50.2143V48.9425L23.2886 47.2592C23.5156 47.6681 23.602 48.1406 23.5346 48.6036C23.4671 49.0667 23.2495 49.4947 22.9153 49.8216C22.3996 50.3571 21.8008 50.8056 21.1422 51.1495C19.2758 52.0473 17.4094 52.8702 15.543 53.7306C15.3925 53.7865 15.227 53.7865 15.0764 53.7306C16.5695 51.8602 19.0892 51.1308 20.6756 49.2979L20.5823 48.9799Z" fill="#9DA3AE" stroke="#FEFFFF" stroke-width="0.32" stroke-miterlimit="10"/>
<path fill-rule="evenodd" clip-rule="evenodd" d="M18.6973 52.9825L21.9448 51.5049L24.0725 53.3752C24.0725 53.5249 23.9419 53.6558 23.9045 53.7867L20.5823 52.5149C20.5113 54.3614 20.2992 56.1997 19.9478 58.0137L19.6865 58.126C19.5185 57.8828 19.2199 57.6771 19.1639 57.4339C18.9586 55.9938 18.8466 54.5349 18.6973 52.9825Z" fill="#9DA3AE" stroke="#FEFFFF" stroke-width="0.32" stroke-miterlimit="10"/>
<path fill-rule="evenodd" clip-rule="evenodd" d="M18.772 31.305V27.9009L20.3771 27.639V30.7064L18.772 31.305Z" fill="#9DA3AE" stroke="#FEFFFF" stroke-width="0.32" stroke-miterlimit="10"/>
</g>
<defs>
<clipPath id="clip0_1097_1581">
<rect width="38" height="58" fill="white" transform="translate(0.5 0.5)"/>
</clipPath>
</defs>
</svg>
