<svg width="57" height="41" viewBox="0 0 57 41" fill="none" xmlns="http://www.w3.org/2000/svg">
<g clip-path="url(#clip0_887_26995)">
<mask id="mask0_887_26995" style="mask-type:luminance" maskUnits="userSpaceOnUse" x="0" y="18" width="57" height="23">
<path d="M56.234 18.3883H0.5V40.5188H56.234V18.3883Z" fill="white"/>
</mask>
<g mask="url(#mask0_887_26995)">
<path d="M50.7233 32.9731H38.9038V38.7168H45.6687L46.5618 37.5906H56.5V32.0908L52.0345 30.9646L51.3504 30.1575C49.8169 30.4192 48.2455 30.3681 46.7328 30.0073C44.8326 29.4067 43.4834 29.1063 43.4834 29.1063L43.1413 30.1575L50.7233 32.9731Z" fill="#9DA3AE"/>
<path d="M30.6758 40.012L38.0867 38.9796V32.6915L30.6758 31.6779V40.012Z" fill="#9DA3AE"/>
<path d="M28.3386 36.2579V40.012C28.3359 40.0669 28.3448 40.1218 28.3649 40.1731C28.3849 40.2244 28.4156 40.271 28.455 40.3099C28.4944 40.3488 28.5416 40.3792 28.5935 40.399C28.6455 40.4188 28.701 40.4276 28.7567 40.4249H29.2127C29.2707 40.4302 29.3292 40.4234 29.3844 40.405C29.4396 40.3866 29.4903 40.357 29.5332 40.3181C29.5762 40.2792 29.6104 40.2319 29.6337 40.1792C29.6571 40.1265 29.669 40.0695 29.6688 40.012V31.6028C29.669 31.5452 29.6571 31.4883 29.6337 31.4356C29.6104 31.3828 29.5762 31.3355 29.5332 31.2967C29.4903 31.2578 29.4396 31.2282 29.3844 31.2098C29.3292 31.1914 29.2707 31.1846 29.2127 31.1898H28.7567C28.701 31.1871 28.6455 31.196 28.5935 31.2158C28.5416 31.2356 28.4944 31.2659 28.455 31.3048C28.4156 31.3437 28.3849 31.3903 28.3649 31.4416C28.3448 31.4929 28.3359 31.5478 28.3386 31.6028V35.4695" fill="#9DA3AE"/>
<path d="M22.1819 35.4695V32.5037C22.1844 32.447 22.1756 32.3904 22.156 32.337C22.1364 32.2837 22.1063 32.2347 22.0674 32.1928C22.0286 32.151 21.9818 32.1171 21.9297 32.0932C21.8776 32.0692 21.8213 32.0556 21.7638 32.0532H21.4028C21.28 32.0531 21.162 32.1 21.0734 32.184C20.9849 32.2679 20.9326 32.3825 20.9277 32.5037V39.3174C20.9298 39.3751 20.9442 39.4318 20.9698 39.4837C20.9955 39.5356 21.0319 39.5816 21.0766 39.6187C21.1214 39.6559 21.1736 39.6833 21.2297 39.6993C21.2859 39.7153 21.3449 39.7195 21.4028 39.7116H21.8589C21.9135 39.7171 21.9687 39.7108 22.0207 39.6933C22.0726 39.6757 22.1201 39.6471 22.1598 39.6097C22.1996 39.5722 22.2306 39.5267 22.2508 39.4762C22.271 39.4258 22.2799 39.3716 22.2769 39.3174V36.2578" fill="#9DA3AE"/>
<path d="M24.7091 35.4695V32.1659C24.7067 32.1092 24.6929 32.0535 24.6687 32.0021C24.6444 31.9506 24.6101 31.9044 24.5678 31.866C24.5254 31.8277 24.4758 31.7979 24.4218 31.7785C24.3678 31.7591 24.3105 31.7504 24.2531 31.753H23.778C23.6581 31.7474 23.5404 31.7869 23.4488 31.8635C23.3571 31.9401 23.2982 32.0481 23.2839 32.1659V39.524C23.2982 39.6417 23.3571 39.7498 23.4488 39.8264C23.5404 39.903 23.6581 39.9425 23.778 39.9369H24.2531C24.3105 39.9394 24.3678 39.9307 24.4218 39.9113C24.4758 39.8919 24.5254 39.8622 24.5678 39.8239C24.6101 39.7855 24.6444 39.7393 24.6687 39.6878C24.6929 39.6364 24.7067 39.5807 24.7091 39.524V35.4695Z" fill="#9DA3AE"/>
<path d="M25.8113 35.4695V31.9031C25.811 31.8456 25.823 31.7886 25.8463 31.7359C25.8697 31.6832 25.9039 31.6359 25.9468 31.597C25.9898 31.5581 26.0405 31.5285 26.0957 31.5101C26.1509 31.4917 26.2093 31.4849 26.2673 31.4901H26.7234C26.7848 31.4823 26.8472 31.4869 26.9067 31.5037C26.9663 31.5205 27.0218 31.5491 27.0698 31.5877C27.1178 31.6263 27.1573 31.6742 27.186 31.7285C27.2146 31.7827 27.2318 31.8421 27.2365 31.9031V39.8243C27.2365 40.0495 26.9894 40.1997 26.7234 40.1997H26.2673C26.2124 40.2048 26.157 40.1992 26.1042 40.1831C26.0515 40.167 26.0025 40.1407 25.9601 40.1058C25.9177 40.0709 25.8828 40.0281 25.8572 39.9797C25.8317 39.9314 25.8161 39.8786 25.8113 39.8243V36.2579" fill="#9DA3AE"/>
<path d="M42.1723 22.7431C42.0199 22.4723 41.8051 22.2408 41.5452 22.0674C41.0971 21.7287 40.605 21.4509 40.082 21.2415C39.569 21.0162 39.0559 20.8473 38.5998 20.6596C37.5927 20.3217 36.6996 20.0589 35.7305 19.8337C33.8303 19.3832 32.12 19.0828 30.5999 18.8201C29.2798 18.5889 27.9475 18.4322 26.6094 18.3508C25.4692 18.2382 24.7091 18.2006 23.987 18.1631L26.5523 18.3883C27.6925 18.5385 29.0037 18.7825 30.5238 19.0828C32.044 19.3832 33.7542 19.7961 35.5785 20.3217C36.5072 20.5777 37.4207 20.8848 38.3148 21.2415C38.7898 21.4119 39.2532 21.6125 39.702 21.8421C40.151 22.038 40.5726 22.2904 40.9561 22.5929C41.1299 22.708 41.2732 22.8625 41.3742 23.0434V23.1936C41.3917 23.2486 41.3917 23.3075 41.3742 23.3625C41.2321 23.5043 41.0646 23.6189 40.8801 23.7004L40.158 24.0007C39.645 24.1509 39.0939 24.2635 38.5048 24.3761L36.7946 24.6014C34.4763 24.8642 31.987 24.9768 29.4977 25.0519C27.0084 25.127 24.4431 25.0519 21.8968 25.0519C21.2507 25.0519 20.6236 25.0519 19.9965 25.0519H19.0274H18.0583C16.7471 25.0519 15.493 25.0519 14.2578 25.0519C13.0227 25.0519 11.6925 25.1645 10.4573 25.3147C9.17814 25.4744 7.90924 25.7063 6.65686 26.0092C5.39832 26.3182 4.18499 26.785 3.04641 27.3982C2.74237 27.5859 2.45733 27.7924 2.15329 28.0176C1.85498 28.2465 1.58686 28.5113 1.35519 28.806C1.08218 29.143 0.870044 29.524 0.728116 29.9322C0.617173 30.3802 0.572371 30.8418 0.5951 31.3025C0.644268 31.7205 0.766425 32.127 0.956145 32.5038C1.15312 32.8259 1.38229 33.1278 1.64023 33.4048C2.11266 33.8668 2.63521 34.2759 3.19843 34.6248C4.1527 35.1854 5.15785 35.6567 6.2008 36.0326C7.20793 36.333 8.10104 36.5958 9.05116 36.7835C10.0013 36.9712 10.8184 37.1776 11.6165 37.2903C13.2697 37.5155 14.6569 37.6657 15.835 37.7783V38.1349C16.9751 38.2476 17.8873 38.2851 18.4953 38.3226H19.4455V33.1983H18.5713C17.9823 33.1983 17.1462 33.1983 16.044 33.1983V33.5737C14.7748 33.5746 13.5064 33.512 12.2436 33.386C11.492 33.3587 10.743 33.2835 10.0013 33.1607C9.18417 33.0481 8.34807 32.898 7.54997 32.7103C6.72787 32.5001 5.92655 32.2174 5.15567 31.8656C4.84719 31.6951 4.54899 31.5071 4.26256 31.3025C4.19 31.2064 4.10718 31.1183 4.01553 31.0397C4.01553 31.0397 3.92052 30.927 3.92052 30.8895C3.92052 30.852 3.92052 30.8895 3.92052 30.7769C3.92052 30.6643 3.92052 30.7769 3.92052 30.6643C3.92052 30.5516 3.92052 30.6643 4.01553 30.5141C4.22464 30.2289 4.48174 29.9813 4.77562 29.782C5.1669 29.5329 5.57302 29.3072 5.99177 29.1063L7.47396 28.5432C8.56732 28.2065 9.67721 27.9246 10.7994 27.6985C11.9775 27.4733 13.1557 27.3231 14.3718 27.1729C15.588 27.0228 16.8421 26.8726 18.0583 26.8726H19.0274H19.9965H21.8968C24.4621 26.8726 27.0274 26.6849 29.4977 26.5347C31.968 26.3846 34.4953 26.1593 36.9086 25.7839L38.6759 25.4273C39.2649 25.2771 39.854 25.127 40.4051 24.9392C40.6937 24.837 40.9734 24.7114 41.2412 24.5638C41.5538 24.4326 41.8282 24.2261 42.0393 23.9632C42.172 23.8046 42.2458 23.6058 42.2483 23.4001C42.2607 23.1976 42.2146 22.9958 42.1153 22.8182" fill="#9DA3AE"/>
</g>
<mask id="mask1_887_26995" style="mask-type:luminance" maskUnits="userSpaceOnUse" x="4" y="0" width="28" height="20">
<path d="M31.0559 0.593872H4.43359V19.5896H31.0559V0.593872Z" fill="white"/>
</mask>
<g mask="url(#mask1_887_26995)">
<path d="M23.5501 12.2879C21.946 10.8776 19.8733 10.0984 17.7258 10.0984C15.5784 10.0984 13.5057 10.8776 11.9016 12.2879L13.8018 13.9773C14.8667 13.021 16.2583 12.498 17.6973 12.5132C19.1399 12.5096 20.5334 13.0308 21.6118 13.9773L23.5121 12.2879H23.5501Z" fill="#9DA3AE"/>
<path d="M27.2934 8.89039C24.6863 6.57456 21.2983 5.30284 17.7922 5.32399C14.2861 5.30284 10.8981 6.57456 8.29102 8.89039L10.1913 10.5985C12.3076 8.75875 15.0301 7.74389 17.8492 7.74389C20.6684 7.74389 23.3909 8.75875 25.5072 10.5985L27.4074 8.89039" fill="#9DA3AE"/>
<path d="M31.018 5.47421C27.3688 2.2684 22.6374 0.527467 17.7543 0.593873C12.8465 0.549284 8.10015 2.32419 4.45264 5.56806L6.35287 7.25741C9.47827 4.47337 13.5459 2.94653 17.7543 2.97773C21.9627 2.94653 26.0303 4.47337 29.1557 7.25741L31.056 5.56806" fill="#9DA3AE"/>
<path d="M17.7734 15.7041C18.2975 15.7041 18.8002 15.9098 19.1708 16.2759C19.5414 16.642 19.7497 17.1385 19.7497 17.6562C19.7497 18.174 19.5414 18.6705 19.1708 19.0366C18.8002 19.4027 18.2975 19.6084 17.7734 19.6084C17.2401 19.6089 16.7272 19.4063 16.3414 19.0427C15.9556 18.679 15.7266 18.1824 15.7021 17.6562C15.7458 17.1302 15.9937 16.6411 16.3938 16.2914C16.794 15.9416 17.3155 15.758 17.8494 15.7792" fill="#9DA3AE"/>
</g>
</g>
<defs>
<clipPath id="clip0_887_26995">
<rect width="56" height="40" fill="white" transform="translate(0.5 0.5)"/>
</clipPath>
</defs>
</svg>
